<svg version="1.2" baseProfile="tiny-ps" xmlns="http://www.w3.org/2000/svg" viewBox="0 0 1600 1600" width="1600" height="1600">
	<title>arrow-left-svg</title>
	<style>
		tspan { white-space:pre }
		.shp0 { fill: #000000 } 
	</style>
	<path id="Layer" class="shp0" d="M1536 736L1536 864C1536 932 1491 992 1419 992L715 992L1008 1286C1032 1309 1046 1342 1046 1376C1046 1410 1032 1443 1008 1466L933 1542C910 1565 877 1579 843 1579C809 1579 776 1565 752 1542L101 890C78 867 64 834 64 800C64 766 78 733 101 709L752 59C776 35 809 21 843 21C877 21 909 35 933 59L1008 133C1032 157 1046 190 1046 224C1046 258 1032 291 1008 315L715 608L1419 608C1491 608 1536 668 1536 736Z" />
</svg>