<svg version="1.2" baseProfile="tiny-ps" xmlns="http://www.w3.org/2000/svg" viewBox="0 0 1600 1600" width="1600" height="1600">
	<title>arrow-right-svg</title>
	<style>
		tspan { white-space:pre }
		.shp0 { fill: #000000 } 
	</style>
	<path id="Layer" class="shp0" d="M1536 800C1536 834 1523 867 1499 891L848 1542C824 1565 791 1579 757 1579C723 1579 691 1565 667 1542L592 1467C568 1443 554 1410 554 1376C554 1342 568 1309 592 1285L885 992L181 992C109 992 64 932 64 864L64 736C64 668 109 608 181 608L885 608L592 314C568 291 554 258 554 224C554 190 568 157 592 134L667 59C691 35 723 21 757 21C791 21 824 35 848 59L1499 710C1523 733 1536 766 1536 800Z" />
</svg>