<svg version="1.2" baseProfile="tiny-ps" xmlns="http://www.w3.org/2000/svg" viewBox="0 0 1536 1536" width="1536" height="1536">
	<title>refresh-svg</title>
	<style>
		tspan { white-space:pre }
		.shp0 { fill: #000000 } 
	</style>
	<path id="Layer" class="shp0" d="M1511 928C1511 930 1511 933 1510 935C1425 1289 1133 1536 764 1536C569 1536 380 1459 238 1324L109 1453C97 1465 81 1472 64 1472C29 1472 0 1443 0 1408L0 960C0 925 29 896 64 896L512 896C547 896 576 925 576 960C576 977 569 993 557 1005L420 1142C514 1230 639 1280 768 1280C946 1280 1111 1188 1204 1036C1228 997 1240 959 1257 919C1262 905 1272 896 1287 896L1479 896C1497 896 1511 911 1511 928ZM1536 128L1536 576C1536 611 1507 640 1472 640L1024 640C989 640 960 611 960 576C960 559 967 543 979 531L1117 393C1022 305 897 256 768 256C590 256 425 348 332 500C308 539 296 577 279 617C274 631 264 640 249 640L50 640C32 640 18 625 18 608L18 601C104 246 399 0 768 0C964 0 1155 78 1297 212L1427 83C1439 71 1455 64 1472 64C1507 64 1536 93 1536 128Z" />
</svg>